<mxfile host="app.diagrams.net" modified="2022-07-25T06:33:26.321Z" agent="5.0 (Windows NT 10.0; Win64; x64) AppleWebKit/537.36 (KHTML, like Gecko) Chrome/102.0.5005.134 YaBrowser/22.7.1.806 Yowser/2.5 Safari/537.36" etag="D9u5KjtLuPwGXRUSPPrS" version="20.2.0" type="github">
  <diagram id="IVSqEVOuzwpS0dq56P6X" name="Страница 1">
    <mxGraphModel dx="1038" dy="575" grid="1" gridSize="10" guides="1" tooltips="1" connect="1" arrows="1" fold="1" page="1" pageScale="1" pageWidth="827" pageHeight="1169" math="0" shadow="0">
      <root>
        <mxCell id="0" />
        <mxCell id="1" parent="0" />
        <mxCell id="IL6pdsxqjl2LyrGsz93d-5" style="edgeStyle=orthogonalEdgeStyle;rounded=0;orthogonalLoop=1;jettySize=auto;html=1;exitX=0.5;exitY=1;exitDx=0;exitDy=0;entryX=0.5;entryY=0;entryDx=0;entryDy=0;fontSize=13;" edge="1" parent="1" source="IL6pdsxqjl2LyrGsz93d-1" target="IL6pdsxqjl2LyrGsz93d-2">
          <mxGeometry relative="1" as="geometry" />
        </mxCell>
        <mxCell id="IL6pdsxqjl2LyrGsz93d-1" value="НАЧАЛО" style="rounded=1;whiteSpace=wrap;html=1;fontSize=13;" vertex="1" parent="1">
          <mxGeometry x="350" y="70" width="120" height="60" as="geometry" />
        </mxCell>
        <mxCell id="IL6pdsxqjl2LyrGsz93d-6" style="edgeStyle=orthogonalEdgeStyle;rounded=0;orthogonalLoop=1;jettySize=auto;html=1;exitX=0.5;exitY=1;exitDx=0;exitDy=0;entryX=0.5;entryY=0;entryDx=0;entryDy=0;fontSize=13;" edge="1" parent="1" source="IL6pdsxqjl2LyrGsz93d-2" target="IL6pdsxqjl2LyrGsz93d-3">
          <mxGeometry relative="1" as="geometry" />
        </mxCell>
        <mxCell id="IL6pdsxqjl2LyrGsz93d-2" value="string[] startArray,&amp;nbsp;&lt;br style=&quot;font-size: 13px;&quot;&gt;int charLimit" style="shape=parallelogram;perimeter=parallelogramPerimeter;whiteSpace=wrap;html=1;fixedSize=1;fontSize=13;" vertex="1" parent="1">
          <mxGeometry x="325" y="170" width="170" height="60" as="geometry" />
        </mxCell>
        <mxCell id="IL6pdsxqjl2LyrGsz93d-7" style="edgeStyle=orthogonalEdgeStyle;rounded=0;orthogonalLoop=1;jettySize=auto;html=1;exitX=0.5;exitY=1;exitDx=0;exitDy=0;entryX=0.5;entryY=0;entryDx=0;entryDy=0;fontSize=13;" edge="1" parent="1" source="IL6pdsxqjl2LyrGsz93d-3" target="IL6pdsxqjl2LyrGsz93d-4">
          <mxGeometry relative="1" as="geometry" />
        </mxCell>
        <mxCell id="IL6pdsxqjl2LyrGsz93d-3" value="int sizeNewArray = getSizeNewArray(startArray, charLimit);" style="shape=process;whiteSpace=wrap;html=1;backgroundOutline=1;size=0.06976744186046512;fontSize=13;" vertex="1" parent="1">
          <mxGeometry x="277.5" y="270" width="265" height="60" as="geometry" />
        </mxCell>
        <mxCell id="IL6pdsxqjl2LyrGsz93d-4" value="string[] newArray = &lt;br style=&quot;font-size: 13px;&quot;&gt;new string[sizeNewArray];" style="rounded=0;whiteSpace=wrap;html=1;fontSize=13;" vertex="1" parent="1">
          <mxGeometry x="310" y="370" width="200" height="60" as="geometry" />
        </mxCell>
        <mxCell id="IL6pdsxqjl2LyrGsz93d-13" style="edgeStyle=orthogonalEdgeStyle;rounded=0;orthogonalLoop=1;jettySize=auto;html=1;exitX=0.5;exitY=1;exitDx=0;exitDy=0;entryX=0.5;entryY=0;entryDx=0;entryDy=0;fontSize=13;" edge="1" parent="1" source="IL6pdsxqjl2LyrGsz93d-4" target="IL6pdsxqjl2LyrGsz93d-9">
          <mxGeometry relative="1" as="geometry">
            <mxPoint x="410" y="530" as="sourcePoint" />
          </mxGeometry>
        </mxCell>
        <mxCell id="IL6pdsxqjl2LyrGsz93d-14" value="ДА" style="edgeStyle=orthogonalEdgeStyle;rounded=0;orthogonalLoop=1;jettySize=auto;html=1;exitX=0.5;exitY=1;exitDx=0;exitDy=0;entryX=0.5;entryY=0;entryDx=0;entryDy=0;fontSize=13;" edge="1" parent="1" source="IL6pdsxqjl2LyrGsz93d-9" target="IL6pdsxqjl2LyrGsz93d-11">
          <mxGeometry relative="1" as="geometry" />
        </mxCell>
        <mxCell id="IL6pdsxqjl2LyrGsz93d-20" value="НЕТ" style="edgeStyle=orthogonalEdgeStyle;rounded=0;orthogonalLoop=1;jettySize=auto;html=1;exitX=1;exitY=0.5;exitDx=0;exitDy=0;entryX=0.5;entryY=0;entryDx=0;entryDy=0;fontSize=13;" edge="1" parent="1" source="IL6pdsxqjl2LyrGsz93d-9" target="IL6pdsxqjl2LyrGsz93d-19">
          <mxGeometry x="-0.8346" relative="1" as="geometry">
            <Array as="points">
              <mxPoint x="630" y="502" />
              <mxPoint x="630" y="802" />
              <mxPoint x="410" y="802" />
            </Array>
            <mxPoint as="offset" />
          </mxGeometry>
        </mxCell>
        <mxCell id="IL6pdsxqjl2LyrGsz93d-9" value="i=0, k=0; &lt;br style=&quot;font-size: 13px;&quot;&gt;i&amp;lt;startArray.Length &amp;amp;&amp;amp; k&amp;lt;newArray.Length; i++" style="shape=hexagon;perimeter=hexagonPerimeter2;whiteSpace=wrap;html=1;fixedSize=1;fontSize=13;" vertex="1" parent="1">
          <mxGeometry x="285" y="472" width="250" height="60" as="geometry" />
        </mxCell>
        <mxCell id="IL6pdsxqjl2LyrGsz93d-16" value="ДА" style="edgeStyle=orthogonalEdgeStyle;rounded=0;orthogonalLoop=1;jettySize=auto;html=1;exitX=0.5;exitY=1;exitDx=0;exitDy=0;entryX=0.5;entryY=0;entryDx=0;entryDy=0;fontSize=13;" edge="1" parent="1" source="IL6pdsxqjl2LyrGsz93d-11" target="IL6pdsxqjl2LyrGsz93d-15">
          <mxGeometry relative="1" as="geometry" />
        </mxCell>
        <mxCell id="IL6pdsxqjl2LyrGsz93d-18" value="НЕТ" style="edgeStyle=orthogonalEdgeStyle;rounded=0;orthogonalLoop=1;jettySize=auto;html=1;exitX=0;exitY=0.5;exitDx=0;exitDy=0;entryX=0;entryY=0.5;entryDx=0;entryDy=0;fontSize=13;" edge="1" parent="1" source="IL6pdsxqjl2LyrGsz93d-11" target="IL6pdsxqjl2LyrGsz93d-9">
          <mxGeometry x="-0.7187" relative="1" as="geometry">
            <mxPoint x="250" y="542" as="targetPoint" />
            <Array as="points">
              <mxPoint x="200" y="612" />
              <mxPoint x="200" y="502" />
            </Array>
            <mxPoint as="offset" />
          </mxGeometry>
        </mxCell>
        <mxCell id="IL6pdsxqjl2LyrGsz93d-11" value="startArray[i].Length &amp;lt;= charLimit" style="rhombus;whiteSpace=wrap;html=1;fontSize=13;" vertex="1" parent="1">
          <mxGeometry x="325" y="572" width="170" height="80" as="geometry" />
        </mxCell>
        <mxCell id="IL6pdsxqjl2LyrGsz93d-17" style="edgeStyle=orthogonalEdgeStyle;rounded=0;orthogonalLoop=1;jettySize=auto;html=1;exitX=0.5;exitY=1;exitDx=0;exitDy=0;entryX=0;entryY=0.5;entryDx=0;entryDy=0;fontSize=13;" edge="1" parent="1" source="IL6pdsxqjl2LyrGsz93d-15" target="IL6pdsxqjl2LyrGsz93d-9">
          <mxGeometry relative="1" as="geometry">
            <Array as="points">
              <mxPoint x="410" y="772" />
              <mxPoint x="200" y="772" />
              <mxPoint x="200" y="502" />
            </Array>
          </mxGeometry>
        </mxCell>
        <mxCell id="IL6pdsxqjl2LyrGsz93d-15" value="newArray[k] = startArray[i];&lt;br style=&quot;font-size: 13px;&quot;&gt;k++;" style="rounded=0;whiteSpace=wrap;html=1;fontSize=13;" vertex="1" parent="1">
          <mxGeometry x="290" y="692" width="240" height="60" as="geometry" />
        </mxCell>
        <mxCell id="IL6pdsxqjl2LyrGsz93d-23" style="edgeStyle=orthogonalEdgeStyle;rounded=0;orthogonalLoop=1;jettySize=auto;html=1;exitX=0.5;exitY=1;exitDx=0;exitDy=0;entryX=0.5;entryY=0;entryDx=0;entryDy=0;fontSize=13;endArrow=classic;startSize=6;endSize=6;endFill=1;" edge="1" parent="1" source="IL6pdsxqjl2LyrGsz93d-19" target="IL6pdsxqjl2LyrGsz93d-21">
          <mxGeometry relative="1" as="geometry" />
        </mxCell>
        <mxCell id="IL6pdsxqjl2LyrGsz93d-19" value="return newArray;" style="shape=parallelogram;perimeter=parallelogramPerimeter;whiteSpace=wrap;html=1;fixedSize=1;fontSize=13;" vertex="1" parent="1">
          <mxGeometry x="340" y="852" width="140" height="60" as="geometry" />
        </mxCell>
        <mxCell id="IL6pdsxqjl2LyrGsz93d-21" value="КОНЕЦ" style="rounded=1;whiteSpace=wrap;html=1;fontSize=13;" vertex="1" parent="1">
          <mxGeometry x="350" y="950" width="120" height="60" as="geometry" />
        </mxCell>
      </root>
    </mxGraphModel>
  </diagram>
</mxfile>
